<svg width="516" height="665" viewBox="0 0 500 350" fill="none" xmlns="http://www.w3.org/2000/svg">
<mask id="mask0_231_2710" style="mask-type:luminance" maskUnits="userSpaceOnUse" x="1" y="1" width="493" height="650">
<path d="M12.7395 1.51514H504.483V650.294H12.7395V1.51514Z" fill="white"/>
</mask>
<g mask="url(#mask0_231_2710)">
<path d="M496.613 630.021H488.942V112.556C488.942 101.422 483.008 87.8345 475.695 82.2162C475.695 82.2162 420.488 45.6693 420.373 45.597C412.583 40.439 402.401 40.9617 395.675 48.8385L369.968 78.9747C363.64 86.3847 358.519 101.422 358.519 112.556V336.772C358.519 336.772 370.134 329.799 373.862 329.224V112.556C373.862 107.188 377.091 97.7199 380.149 94.1366L400.714 70.0328V333.07L416.059 342.614V308.615L473.598 348.62V386.528L454.648 373.348C456.865 378.322 458.253 398.764 458.253 398.764L473.598 409.431V447.339L458.253 436.671V459.572L473.598 470.243V508.151L458.253 497.48V520.387L473.598 531.058V568.966L458.253 558.295V581.202L473.598 591.866V630.021H442.911V406.381C442.911 395.19 436.678 382.303 428.987 377.596L391.622 354.754C388.029 352.555 383.431 351.47 378.781 351.47C373.476 351.47 368.109 352.884 364.11 355.655L333.747 376.695C326.243 381.896 320.159 395.19 320.159 406.381V630.021H304.815V72.4031C304.815 61.2059 298.885 47.5465 291.57 41.892C291.57 41.892 243.924 5.07893 243.919 5.07564C236.464 -0.687299 225.671 0.792064 219.221 8.33681L193.511 38.6374C187.188 46.0869 182.063 61.2059 182.063 72.4031V630.021H166.721V167.917C166.721 156.648 160.602 143.347 153.058 138.215C153.058 138.215 120.433 116.011 120.43 116.011C114.377 111.889 106.295 112.024 100.194 115.959C98.5345 117.027 96.5788 118.49 95.2675 120.223L40.1245 184.996C33.7722 192.465 28.6241 207.646 28.6241 218.916V630.021H20.9531C16.7157 630.021 13.2795 634.561 13.2795 640.159C13.2795 645.758 16.7157 650.295 20.9531 650.295H496.613C500.851 650.295 504.287 645.758 504.287 640.159C504.287 634.561 500.851 630.021 496.613 630.021ZM101.508 630.021H76.0687L101.508 601.587V630.021ZM101.508 575.038L52.4385 629.889L52.5231 630.021H43.9687V602.528L101.508 537.912V575.038ZM101.508 511.32L43.9687 575.935V536.65L101.508 472.035V511.32ZM101.508 445.442L43.9687 510.051V470.769L101.508 406.154V445.442ZM101.508 379.561L43.9687 444.177V404.885L101.508 340.276V379.561ZM101.508 313.677L43.9687 378.292V339.01L101.508 274.395V313.677ZM101.508 247.8L43.9687 312.412V273.126L101.508 208.518V247.8ZM101.508 181.919L43.9687 246.534V218.916C43.9687 213.422 47.2357 203.774 50.3211 200.148L101.508 140.016V181.919ZM289.47 630.021H243.439V578.943L289.47 613.149V630.021ZM289.47 589.887L243.439 555.681V518.128L289.47 552.335V589.887ZM289.47 529.079L243.439 494.866V457.317L289.47 491.526V529.079ZM289.47 468.264L243.439 434.058V396.508L289.47 430.711V468.264ZM289.47 407.449L243.439 373.243V335.693L289.47 369.9V407.449ZM289.47 346.641L243.439 312.431V274.878L289.47 309.088V346.641ZM289.47 285.826L243.439 251.623V214.07L289.47 248.276V285.826ZM289.47 225.014L243.439 190.808V153.255L289.47 187.461V225.014ZM289.47 164.206L243.439 130V92.4435L289.47 126.653V164.206ZM289.47 103.391L243.439 69.1846V28.1931L283.822 59.3945C286.409 61.3933 289.47 68.4417 289.47 72.4031V103.391ZM370.027 374.443V630.021H335.504V406.381C335.504 402.709 338.412 396.354 340.876 394.644M427.566 630.021H385.372V373.263L422.535 395.992C424.795 397.373 427.566 403.1 427.566 406.381V630.021ZM473.598 325.716L416.059 285.704V247.8L473.598 287.808V325.716ZM473.598 264.908L416.059 224.889V186.988L473.598 226.993V264.908ZM473.598 204.093L416.059 164.081V126.176L473.598 166.185V204.093ZM473.598 143.278L416.059 103.266V65.4139L468.246 99.9554C470.759 102.184 473.598 108.795 473.598 112.556V143.278Z" fill="#212121" fill-opacity="0.2"/>
</g>
</svg>

