<svg width="748" height="600" viewBox="0 0 748 250" fill="none" xmlns="http://www.w3.org/2000/svg">
<mask id="mask0_271_744" style="mask-type:luminance" maskUnits="userSpaceOnUse" x="21" y="0" width="706" height="600">
<path d="M21.2136 176.317L637.482 0.440992L726.083 423.409L109.814 599.286L21.2136 176.317Z" fill="white"/>
</mask>
<g mask="url(#mask0_271_744)">
<path d="M560.954 209.986C550.757 212.896 541.19 217.207 532.358 222.632L458.73 94.457L478.334
78.4142C482.321 81.4951 487.517 82.6918 492.735 81.2024C502.228 78.4933 508.179 67.9612 506.026
57.6806C503.872 47.4 494.429 41.2616 484.936 43.9706C476.499 46.3786 470.874 54.9674 471.241
64.0685L444.301 86.1096C441.095 88.7278 440.205 93.5454 442.268 97.1379L459.658 127.41L279.781
248.841L268.627 230.343C288.107 219.151 324.315 205.647 322.829 203.893C321.022 201.76 318.088 1
95.529 306.439 194.437C296.244 193.479 230.486 213.57 214.223 218.6C211.812 219.346 209.909 221.402
 209.162 224.018C208.05 227.923 206.807 233.871 207.583 239.135C208.778 247.263 241.751 248.584
 255.872 239.492L266.794 257.602L256.434 264.593C254.994 265.567 253.873 267.027 253.249 268.741L234.016
  321.856C214.632 315.612 193.336 314.9 172.024 320.983C109.44 338.844 70.0721 408.521 84.2709 476.305C98.469
   544.085 160.94 584.699 223.524 566.838C281.463 550.303 319.468 489.366 313.537 426.634L332.652
    421.178C337.045 419.924 340.488 416.529 342.271 412.306L362.633 406.666C362.639 406.664 362.648 406.661
     362.657 406.659C362.666 406.656 362.679 406.656 362.691 406.653C363.151 406.521 363.602 406.328 364.048
     406.098C364.196 406.022 364.33 405.925 364.472 405.837C364.679 405.71 364.893 405.604 365.095 405.458C365.158
      405.409 365.208 405.347 365.272 405.295C365.478 405.134 365.666 404.95 365.855 404.767C366.057 404.573
      366.259 404.382 366.438 404.17C366.595 403.985 366.727 403.791 366.869 403.593C367.043 403.342 367.218
       403.094 367.367 402.83C367.408 402.753 367.467 402.692 367.51 402.611L396.09 348.164C403.112 348.833 410.331 345.015 414.153 337.834L467.744 237.089C471.726 229.604 470.878 220.596 466.277 214.447L486.989 174.991L519.56 231.694C482.291 261.919 462.48 314.144 473.197 365.305C487.396 433.089 549.866 473.7 612.453 455.838C675.037 437.977 714.405 368.303 700.207 300.519C686.008 232.735 623.541 192.124 560.954 209.986ZM266.238 276.964L274.937 271.095L348.867 393.695L340.327 396.061C337.035 391.911 331.728 389.924 326.426 391.437L307.31 396.892C296.724 365.019 274.922 340.57 247.939 327.473L266.238 276.964ZM204.973 478.277C187.477 483.27 170.011 471.916 166.042 452.968C162.073 434.017 173.079 414.537 190.575 409.543C208.074 404.549 225.539 415.904 229.509 434.855C233.478 453.803 222.472 473.283 204.973 478.277ZM287.626 402.51L241.489 415.677C237.101 407.239 230.713 400.488 223.149 395.909L240.477 348.069C261.588 358.694 278.738 377.778 287.626 402.51ZM219.093 545.687C167.277 560.475 115.552 526.85 103.797 470.732C92.041 414.611 124.638 356.921 176.454 342.133C193.65 337.226 210.825 337.676 226.541 342.482L209.209 390.33C202.028 388.754 194.379 388.849 186.702 391.039C159.74 398.734 142.842 428.641 148.959 457.843C155.076 487.042 181.89 504.477 208.852 496.783C231.044 490.449 246.382 469.064 247.722 445.416L293.856 432.25C297.474 483.246 266.25 532.229 219.093 545.687ZM452.9 207.452C446.312 207.352 439.747 211.123 436.165 217.853L382.574 318.599C378.826 325.638 379.358 334.026 383.261 340.118L360.722 383.062L287.913 262.33L467.517 141.094L478.081 159.484L452.9 207.452ZM608.023 434.69C556.203 449.479 504.482 415.853 492.727 359.735C483.955 317.859 499.881 275.119 530.06 249.973L580.305 337.445C582.03 340.451 585.316 341.718 588.366 340.848C589.144 340.625 589.912 340.26 590.63 339.751C594.166 337.25 595.274 332.162 593.103 328.385L542.849 240.899C549.841 236.733 557.381 233.421 565.384 231.136C617.204 216.348 668.925 249.973 680.681 306.095C692.436 362.213 659.843 419.902 608.023
        434.69Z" fill="#212121" fill-opacity="0.2"/>
</g>
</svg>
