<svg width="500" height="200" viewBox="0 0 800 982" fill="none" xmlns="http://www.w3.org/2000/svg">
<g clip-path="url(#clip0_231_2614)">
<mask id="mask0_231_2614" style="mask-type:luminance" maskUnits="userSpaceOnUse" x="19" y="0" width="649" height="1169">
<path d="M19.2783 0H667.665V1169H19.2783V0Z" fill="white"/>
</mask>
<g mask="url(#mask0_231_2614)">
<path d="M235.249 1060.56C236.576 1051.76 237.152 1035.58 238.795 1021.41C240.433 1007.25 243.138 995.116 242.653 980.373C242.173 965.637 238.502 948.296 237.344 934.326C236.186 920.356 237.542 909.758 235.418 901.572C233.295 893.381 227.693 887.602 224.898 882.686C222.097 877.776 222.097 873.728 219.013 866.692C215.924 859.662 209.746 849.639 204.15 834.902C198.554 820.16 193.533 800.699 188.423 779.987C183.306 759.275 178.094 737.305 175.299 719.485C172.498 701.659 172.114 687.983 172.983 675.36C173.853 662.738 175.971 651.181 177.032 644.726C178.094 638.271 178.094 636.918 172.887 634.511C167.675 632.103 157.25 628.636 153.009 625.84C148.763 623.049 150.688 620.93 153.009 612.642C155.325 604.355 158.024 589.906 161.689 571.505C165.36 553.104 169.99 530.752 173.175 504.932C176.36 479.112 178.094 449.83 180.895 430.071C183.69 410.328 187.553 400.113 189.095 392.215C190.642 384.317 189.868 378.724 191.608 372.466C193.341 366.203 197.588 359.263 196.718 354.832C195.854 350.407 189.868 348.479 179.833 342.018C169.798 335.569 155.709 324.587 144.708 316.007C133.707 307.432 125.795 301.27 120.199 295.103C114.603 288.941 111.322 282.768 108.041 274.779C104.76 266.78 101.479 256.948 99.8353 253.103C98.1977 249.247 98.1976 251.367 99.5473 257.337C100.897 263.307 103.602 273.133 104.76 279.301C105.917 285.468 105.528 287.971 106.013 290.666C106.493 293.372 107.843 296.258 107.459 299.444C107.075 302.617 104.952 306.085 105.336 308.689C105.72 311.288 108.617 313.024 109.102 315.821C109.582 318.605 107.651 322.462 107.651 326.605C107.651 330.749 109.582 335.18 110.74 340.383C111.898 345.587 112.282 351.557 114.213 359.557C116.144 367.551 119.617 377.568 122.61 384.119C125.598 390.67 128.111 393.754 132.645 397.802C137.18 401.849 143.742 406.855 147.023 410.52C150.304 414.184 150.304 416.49 148.469 418.226C146.639 419.963 142.969 421.113 138.727 421.113C134.481 421.113 129.652 419.963 124.734 418.418C119.809 416.879 114.795 414.951 111.706 415.052C108.617 415.143 107.459 417.262 103.02 417.55C98.5817 417.837 90.862 416.298 84.1079 414.562C77.3539 412.831 71.5599 410.909 67.2172 408.784C62.8745 406.664 59.9832 404.358 59.4015 401.562C58.8255 398.766 60.5592 395.49 60.1752 390.388C59.7912 385.275 57.2782 378.346 55.5445 373.042C53.8052 367.742 52.8395 364.078 51.8738 362.06C50.9082 360.036 49.9481 359.652 49.7505 356.089C49.5585 352.527 50.1401 345.778 49.8521 336.82C49.5585 327.862 48.4008 316.689 47.4351 309.36C46.4751 302.042 45.7015 298.575 41.3588 289.899C37.0161 281.229 29.1044 267.355 24.7617 257.145C20.419 246.93 19.6454 240.379 19.9334 233.253C20.227 226.122 21.5767 218.415 24.3721 207.631C27.1731 196.835 31.4197 182.966 33.7351 174.386C36.0504 165.811 36.4344 162.536 38.1738 157.913C39.9131 153.29 43.0021 147.32 45.5095 139.704C48.0168 132.093 49.9481 122.848 54.2908 116.675C58.6335 110.513 65.3875 107.429 69.4366 103.962C73.4912 100.489 74.8409 96.6444 77.9299 92.591C81.0189 88.5489 85.8416 84.3038 90.574 79.8783C95.3006 75.4472 99.9313 70.8244 103.116 69.6631C106.301 68.5074 108.041 70.8244 108.425 71.2022C108.809 71.5911 107.843 70.0521 106.301 65.621C104.76 61.1899 102.636 53.8668 102.924 45.2921C103.212 36.723 105.917 26.8912 113.439 18.6096C120.967 10.3224 133.323 3.5743 144.228 1.84358C155.127 0.10722 164.586 3.38258 172.791 10.4126C180.991 17.4482 187.937 28.2385 190.834 34.2087C193.731 40.1845 192.573 41.3402 192.184 43.4599C191.8 45.5796 192.184 48.6633 191.416 52.8069C190.642 56.9449 188.711 62.154 186.779 66.0044C184.854 69.8548 182.922 72.3635 182.171 74.6524C181.426 76.9356 181.861 79.0102 182.414 81.2257C182.967 83.4413 183.645 85.8034 183.888 87.2973C184.125 88.7857 183.933 89.417 182.798 89.5805C181.669 89.7553 179.59 89.4622 178.557 89.558C177.518 89.6538 177.518 90.133 177.326 91.0801C177.128 92.0216 176.744 93.4085 176.021 94.4007C175.299 95.3872 174.237 95.9679 173.588 97.101C172.932 98.2342 172.69 99.9198 172.21 101.053C171.724 102.18 171.007 102.755 169.533 103.071C168.059 103.387 165.84 103.432 164.467 104.351C163.089 105.264 162.559 107.046 161.762 108.246C160.966 109.453 159.904 110.084 159.639 112.83C159.374 115.575 159.904 120.44 162.197 124.483C164.49 128.53 168.545 131.761 169.386 135.419C170.233 139.078 167.867 143.177 164.874 145.821C161.887 148.476 158.267 149.677 157.081 151.87C155.901 154.057 157.154 157.237 159.786 160.585C162.412 163.934 166.421 167.452 169.459 170.169C172.498 172.892 174.576 174.82 175.711 177.498C176.84 180.17 177.032 183.586 175.829 185.661C174.621 187.73 172.018 188.457 170.905 189.895C169.798 191.344 170.182 193.514 171.199 195.222C172.21 196.936 173.853 198.182 175.733 198.571C177.614 198.954 179.737 198.475 181.861 199.388C183.984 200.302 186.107 202.619 187.914 205.917C189.727 209.215 191.224 213.505 189.75 217.671C188.276 221.837 183.843 225.885 180.946 227.328C178.049 228.771 176.699 227.621 175.829 225.783C174.96 223.957 174.576 221.454 171.972 219.233C169.363 217.017 164.541 215.095 162.513 212.975C160.486 210.855 161.26 208.544 157.883 204.784C154.506 201.029 146.978 195.826 145.047 195.341C143.115 194.862 146.786 199.101 150.355 203.915C153.924 208.73 157.397 214.131 161.937 218.083C166.472 222.029 172.068 224.538 176.891 228.005C181.714 231.472 185.768 235.908 190.495 239.562C195.227 243.226 200.632 246.112 201.694 248.429C202.755 250.741 199.474 252.472 200.728 256.232C201.982 259.986 207.77 265.765 214.914 270.01C222.052 274.249 230.545 276.938 238.169 280.603C245.792 284.267 252.546 288.89 256.505 290.531C260.458 292.165 261.616 290.818 261.712 288.501C261.808 286.195 260.848 282.92 256.793 277.04C252.738 271.166 245.6 262.687 242.85 256.998C240.1 251.316 241.738 248.429 244.104 246.451C246.47 244.478 249.553 243.418 251.146 241.969C252.738 240.531 252.834 238.693 254.286 237.346C255.731 235.999 258.532 235.13 260.317 233.93C262.101 232.723 262.869 231.184 263.259 229.549C263.643 227.909 263.643 226.172 264.366 224.633C265.089 223.089 266.54 221.741 267.506 220.681C268.471 219.622 268.951 218.855 268.421 217.119C267.89 215.382 266.348 212.687 266.105 210.421C265.862 208.16 266.924 206.323 269.482 205.793C272.04 205.268 276.095 206.035 279.178 206.035C282.267 206.035 284.391 205.268 287.429 203.628C290.473 201.993 294.426 199.484 298.769 196.835C303.111 194.191 307.838 191.394 313.581 189.946C319.324 188.502 326.078 188.407 329.41 187.251C332.736 186.095 332.64 183.88 332.59 182.149C332.544 180.413 332.544 179.155 334.425 178.484C336.305 177.808 340.072 177.712 342.63 178.676C345.183 179.64 346.538 181.67 347.549 183.784C348.56 185.903 349.237 188.119 350.587 188.311C351.942 188.502 353.964 186.67 356.138 186.721C358.307 186.772 360.622 188.7 361.057 189.709C361.492 190.718 360.046 190.814 359.611 191.924C359.176 193.035 359.758 195.149 362.169 197.128C364.581 199.101 368.827 200.933 371.916 204.834C375 208.73 376.931 214.711 379.201 219.142C381.466 223.568 384.075 226.46 386.486 227.813C388.898 229.16 391.117 228.969 393.675 228.63C396.233 228.292 399.13 227.813 399.661 227.232C400.186 226.652 398.357 225.981 398.837 225.214C399.322 224.436 402.118 223.568 404.964 223.19C407.81 222.801 410.707 222.897 418.427 225.304C426.146 227.711 438.689 232.436 448.775 239.663C458.86 246.885 466.484 256.615 471.211 266.633C475.938 276.657 477.773 286.962 480.382 297.126C482.985 307.291 486.362 317.309 486.701 326.656C487.034 336.003 484.335 344.668 484.284 352.087C484.239 359.506 486.842 365.673 488.096 370.251C489.355 374.823 489.254 377.811 490.993 380.945C492.732 384.08 496.301 387.355 497.555 390.242C498.809 393.134 497.747 395.642 499.051 398.816C500.356 401.996 504.021 405.846 503.97 409.99C503.925 414.134 500.164 418.565 500.452 423.001C500.74 427.427 505.083 431.858 506.675 438.076C508.268 444.289 507.11 452.288 504.987 457.971C502.863 463.654 499.774 467.025 498.47 471.552C497.171 476.084 497.651 481.767 499.87 487.258C502.09 492.749 506.048 498.048 505.032 502.333C504.021 506.623 498.035 509.898 494.805 512.785C491.575 515.677 491.089 518.18 492.055 522.853C493.02 527.527 495.432 534.365 494.325 539.665C493.212 544.964 488.582 548.724 483.804 550.748C479.027 552.766 474.108 553.059 473.091 556.476C472.081 559.898 474.978 566.448 475.503 570.35C476.034 574.251 474.204 575.508 475.599 581.957C476.999 588.412 481.636 600.071 486.554 610.427C491.473 620.789 496.685 629.843 500.887 641.067C505.083 652.291 508.268 665.68 509.521 684.515C510.775 703.35 510.097 727.626 509.521 751.134C508.945 774.643 508.46 797.379 508.652 810.238C508.844 823.103 509.713 826.085 516.326 837.169C522.933 848.246 535.284 867.42 548.605 890.686C561.922 913.952 576.203 941.311 587.588 962.7C598.978 984.089 607.466 999.502 611.425 1007.55C615.378 1015.59 614.802 1016.26 614.367 1017.03C613.932 1017.81 613.644 1018.67 617.258 1022.77C620.878 1026.86 628.406 1034.18 633.087 1038.61C637.769 1043.05 639.598 1044.59 640.903 1045.07C642.207 1045.55 642.975 1044.97 645.534 1046.32C648.092 1047.67 652.435 1050.95 655.862 1054.46C659.285 1057.98 661.798 1061.74 663.243 1064.15C664.689 1066.55 665.079 1067.61 665.751 1068.48C666.428 1069.35 667.394 1070.02 667.004 1072.1C666.62 1074.17 664.881 1077.63 660.397 1083.99C655.908 1090.35 648.674 1099.6 642.546 1108.03C636.413 1116.46 631.399 1124.07 625.029 1131.2C618.659 1138.33 610.939 1144.98 600.808 1150.51C590.677 1156.06 578.129 1160.49 571.426 1162.17C564.717 1163.86 563.847 1162.8 564.525 1160.2C565.197 1157.59 567.422 1153.45 569.06 1150.47C570.703 1147.48 571.765 1145.65 573.114 1143.34C574.464 1141.03 576.107 1138.23 577.745 1135.2C579.388 1132.16 581.026 1128.89 583.2 1122.48C585.369 1116.07 588.068 1106.54 590.095 1098.44C592.123 1090.35 593.472 1083.7 593.67 1077.15C593.862 1070.6 592.896 1064.15 590.824 1057.31C588.746 1050.46 585.561 1043.24 583.725 1039.73C581.896 1036.21 581.41 1036.4 571.81 1040.59C562.21 1044.78 543.489 1052.97 532.731 1057.31C521.968 1061.64 519.172 1062.12 517.625 1062.94C516.083 1063.76 515.795 1064.92 516.71 1071.76C517.625 1078.6 519.748 1091.12 521.296 1098.83C522.837 1106.54 523.803 1109.43 524.673 1110.87C525.542 1112.31 526.31 1112.31 527.327 1115.98C528.338 1119.64 529.591 1126.96 530.026 1131.39C530.461 1135.82 530.077 1137.37 529.642 1138.23C529.207 1139.1 528.722 1139.29 528.626 1140.4C528.53 1141.51 528.818 1143.53 527.858 1144.69C526.892 1145.85 524.673 1146.13 519.172 1147.39C513.672 1148.64 504.891 1150.85 500.254 1151.67C495.624 1152.49 495.144 1151.91 492.297 1152.01C489.451 1152.1 484.239 1152.88 473.334 1154.08C462.429 1155.28 445.832 1156.92 431.698 1157.59C417.557 1158.27 405.884 1157.98 398.453 1156.92C391.021 1155.86 387.836 1154.03 386.294 1152.25C384.747 1150.47 384.843 1148.73 388.124 1147.1C391.405 1145.46 397.871 1143.92 403.275 1143.1C408.68 1142.28 413.022 1142.18 419.054 1139.39C425.085 1136.6 432.804 1131.1 440.716 1125.75C448.633 1120.41 456.737 1115.21 461.949 1111.93C467.156 1108.66 469.472 1107.31 471.691 1102.15C473.91 1097 476.034 1088.04 477.095 1081.92C478.163 1075.81 478.163 1072.53 477.824 1070.84C477.485 1069.15 476.807 1069.06 467.156 1070.65C457.511 1072.24 438.886 1075.51 429.958 1075.9C421.03 1076.28 421.804 1073.78 416.207 1040.79C410.611 1007.79 398.645 944.299 391.021 900.512C383.397 856.725 380.116 832.642 377.513 802.289C374.909 771.942 372.978 735.338 370.759 710.961C368.539 686.584 366.032 674.447 363.039 661.92C360.046 649.399 356.573 636.489 353.964 626.663C351.361 616.837 349.627 610.094 349.723 605.37C349.819 600.651 351.745 597.951 351.073 595.352C350.395 592.748 347.114 590.245 342.963 586.777C338.818 583.31 333.798 578.879 331.291 576.664C328.783 574.448 328.783 574.448 329.359 580.898C329.941 587.352 331.099 600.262 331.675 608.55C332.256 616.837 332.256 620.496 334.572 624.352C336.887 628.202 341.518 632.25 342.771 634.274C344.031 636.298 341.907 636.298 339.298 635.429C336.695 634.561 333.606 632.831 332.064 632.926C330.517 633.022 330.517 634.945 331.771 637.357C333.03 639.765 335.537 642.657 336.791 649.878C338.045 657.106 338.045 668.668 337.949 678.303C337.853 687.932 337.661 695.644 338.237 702.003C338.818 708.362 340.168 713.368 338.045 719.44C335.921 725.506 330.325 732.637 328.298 737.937C326.27 743.236 327.818 746.703 327.722 748.919C327.626 751.134 325.886 752.098 325.886 763.464C325.886 774.834 327.626 796.607 327.53 814.043C327.428 831.48 325.502 844.588 326.27 854.893C327.044 865.204 330.517 872.713 331.099 878.881C331.675 885.048 329.359 889.863 330.907 893.33C332.448 896.803 337.853 898.922 340.168 904.701C342.483 910.479 341.71 919.922 341.811 932.928C341.907 945.939 342.873 962.508 343.065 979.268C343.257 996.034 342.675 1012.99 341.71 1023.59C340.744 1034.18 339.394 1038.42 338.722 1044.49C338.045 1050.56 338.045 1058.46 336.983 1065.4C335.921 1072.33 333.798 1078.31 333.414 1083.61C333.03 1088.91 334.38 1093.53 334.86 1097.09C335.345 1100.66 334.956 1103.16 335.345 1104.9C335.729 1106.63 336.887 1107.6 337.367 1108.85C337.853 1110.1 337.661 1111.64 337.565 1112.41C337.469 1113.18 337.469 1113.18 338.141 1114.43C338.818 1115.69 340.168 1118.19 340.36 1122.72C340.552 1127.25 339.592 1133.8 339.688 1137.94C339.784 1142.09 340.942 1143.82 341.23 1146.33C341.518 1148.83 340.942 1152.1 340.456 1153.74C339.976 1155.38 339.592 1155.38 336.599 1156.06C333.606 1156.73 328.01 1158.08 325.113 1158.46C322.221 1158.85 322.029 1158.27 318.94 1158.85C315.851 1159.43 309.871 1161.16 301.09 1162.7C292.308 1164.24 280.726 1165.59 265.286 1166.75C249.847 1167.91 230.545 1168.87 217.037 1167.71C203.529 1166.56 195.809 1163.28 192.24 1160.97C188.665 1158.65 189.247 1157.31 190.213 1154.8C191.173 1152.3 192.528 1148.64 196.481 1145.94C200.44 1143.24 207.002 1141.51 210.091 1140.45C213.18 1139.39 212.79 1139 207.002 1139.58C201.214 1140.16 190.015 1141.7 180.466 1141.31C170.911 1140.93 162.999 1138.62 158.075 1136.31C153.156 1133.99 151.225 1131.68 150.841 1130.24C150.457 1128.79 151.609 1128.21 152.478 1126.48C153.348 1124.75 153.93 1121.85 156.821 1119.45C159.718 1117.04 164.93 1115.11 172.746 1113.37C180.562 1111.64 190.981 1110.1 197.159 1107.69C203.331 1105.28 205.263 1102.01 207.674 1099.79C210.091 1097.58 212.982 1096.42 215.687 1093.82C218.387 1091.22 220.894 1087.17 222.345 1084.76C223.791 1082.36 224.181 1081.58 224.277 1080.52C224.373 1079.46 224.181 1078.12 225.045 1076.67C225.914 1075.22 227.846 1073.69 229.845 1072.21C231.849 1070.74 233.922 1069.34 235.249 1060.56Z" stroke="#212121" stroke-opacity="0.2" stroke-width="0.203224" stroke-miterlimit="22.926"/>
</g>
<path d="M83.7295 366.841C85.13 368.234 87.8293 372.186 89.6647 375.027C91.5 377.874 92.46 379.605 93.1885 381.725C93.9114 383.844 94.3914 386.353 94.589 387.841C94.781 389.335 94.6794 389.82 93.3805 389.093C92.076 388.377 89.5687 386.443 87.9762 384.132C86.3836 381.826 85.706 379.12 85.1751 376.904C84.6443 374.689 84.2603 372.958 83.7803 371.509C83.2946 370.066 82.713 368.91 82.4758 367.755C82.233 366.599 82.329 365.443 83.7295 366.841Z" stroke="#212121" stroke-opacity="0.2" stroke-width="0.203212" stroke-miterlimit="22.926"/>
<path fill-rule="evenodd" clip-rule="evenodd" d="M189.1 392.204C187.559 400.102 183.696 410.317 180.895 430.06C178.1 449.814 176.36 479.101 173.181 504.921C169.996 530.741 165.36 553.094 161.695 571.495C158.03 589.895 155.325 604.35 153.009 612.632C150.694 620.919 148.763 623.039 153.009 625.835C157.256 628.625 167.675 632.092 172.887 634.5C178.1 636.913 178.1 638.26 177.038 644.715C175.976 651.17 173.853 662.732 172.983 675.349C172.114 687.972 172.503 701.654 175.299 719.48C178.1 737.3 183.312 759.264 188.423 779.982C193.539 800.694 198.559 820.155 204.156 834.897C209.752 849.634 215.925 859.657 219.014 866.687C222.103 873.723 222.103 877.765 224.904 882.681C227.699 887.591 233.295 893.375 235.419 901.561C237.542 909.752 236.192 920.351 237.35 934.321C238.508 948.291 242.173 965.632 242.658 980.374C243.138 995.11 240.439 1007.25 238.796 1021.42C237.158 1035.58 236.576 1051.76 235.249 1060.55C233.928 1069.35 231.85 1070.74 229.851 1072.22C227.851 1073.68 225.92 1075.23 225.05 1076.67C224.181 1078.11 224.373 1079.46 224.277 1080.52C224.181 1081.58 223.797 1082.35 222.345 1084.76C220.9 1087.17 218.392 1091.22 215.687 1093.82C212.988 1096.42 210.091 1097.57 207.68 1099.79C205.268 1102.01 203.337 1105.28 197.165 1107.69C190.987 1110.1 180.562 1111.64 172.746 1113.37C164.93 1115.11 159.718 1117.03 156.827 1119.45C153.93 1121.85 153.348 1124.75 152.484 1126.48C151.614 1128.21 150.457 1128.79 150.841 1130.24C151.23 1131.68 153.156 1133.99 158.08 1136.3C162.999 1138.62 170.911 1140.93 180.466 1141.31C190.021 1141.7 201.214 1140.16 207.008 1139.58C212.796 1139 213.18 1139.39 210.091 1140.45C207.008 1141.51 200.446 1143.24 196.487 1145.94C192.528 1148.64 191.179 1152.3 190.213 1154.81C189.247 1157.31 188.671 1158.66 192.24 1160.97C195.809 1163.28 203.529 1166.56 217.043 1167.71C230.551 1168.87 249.853 1167.91 265.292 1166.75C280.732 1165.6 292.308 1164.24 301.09 1162.7C309.871 1161.16 315.857 1159.43 318.946 1158.85C322.035 1158.27 322.227 1158.85 325.118 1158.46C328.016 1158.08 333.612 1156.73 336.605 1156.06C339.598 1155.38 339.982 1155.38 340.462 1153.75C340.948 1152.1 341.524 1148.83 341.236 1146.33C340.948 1143.82 339.79 1142.09 339.694 1137.94C339.598 1133.8 340.558 1127.25 340.366 1122.72C340.174 1118.19 338.824 1115.69 338.147 1114.43C337.475 1113.18 337.475 1113.18 337.565 1112.41C337.667 1111.64 337.859 1110.1 337.373 1108.85C336.893 1107.6 335.735 1106.63 335.346 1104.9C334.962 1103.17 335.346 1100.66 334.866 1097.09C334.386 1093.53 333.036 1088.9 333.42 1083.6C333.804 1078.31 335.927 1072.33 336.989 1065.4C338.051 1058.46 338.051 1050.56 338.728 1044.49C339.4 1038.42 340.75 1034.18 341.716 1023.59C342.681 1012.99 343.263 996.029 343.071 979.269C342.879 962.503 341.913 945.934 341.817 932.928C341.716 919.923 342.489 910.48 340.174 904.696C337.859 898.917 332.454 896.797 330.913 893.33C329.365 889.863 331.681 885.043 331.105 878.876C330.523 872.714 327.05 865.199 326.276 854.888C325.508 844.583 327.434 831.475 327.535 814.038C327.632 796.601 325.892 774.829 325.892 763.458C325.892 752.093 327.632 751.129 327.728 748.913C327.824 746.698 326.276 743.225 328.304 737.932C330.331 732.632 335.927 725.501 338.051 719.429C340.174 713.363 338.824 708.351 338.243 701.992C337.667 695.633 337.859 687.927 337.955 678.292C338.051 668.657 338.051 657.095 336.797 649.873C335.543 642.646 333.036 639.754 331.777 637.347C330.523 634.939 330.523 633.011 332.07 632.915C333.612 632.82 336.701 634.55 339.304 635.419C341.913 636.287 344.037 636.287 342.783 634.263C341.524 632.239 336.893 628.197 334.578 624.341C332.262 620.485 332.262 616.826 331.681 608.539C331.105 600.257 329.947 587.347 329.365 580.887C328.789 574.437 328.789 574.437 331.297 576.653C333.804 578.868 338.824 583.299 342.975 586.767C347.12 590.234 350.407 592.742 351.079 595.341C351.756 597.94 349.825 600.641 349.729 605.359C349.633 610.083 351.367 616.826 353.976 626.652C356.579 636.478 360.052 649.388 363.045 661.915C366.038 674.442 368.545 686.579 370.765 710.95C372.984 735.327 374.915 771.937 377.519 802.284C380.128 832.631 383.409 856.72 391.032 900.507C398.65 944.294 410.617 1007.78 416.213 1040.78C421.81 1073.78 421.042 1076.29 429.964 1075.9C438.892 1075.51 457.517 1072.24 467.168 1070.65C476.819 1069.06 477.491 1069.15 477.83 1070.84C478.168 1072.53 478.168 1075.8 477.107 1081.92C476.045 1088.04 473.922 1097 471.702 1102.15C469.483 1107.31 467.168 1108.66 461.955 1111.93C456.743 1115.21 448.639 1120.41 440.728 1125.75C432.81 1131.1 425.091 1136.6 419.059 1139.39C413.028 1142.18 408.686 1142.28 403.287 1143.1C397.882 1143.92 391.416 1145.46 388.135 1147.1C384.849 1148.73 384.758 1150.47 386.3 1152.25C387.842 1154.03 391.027 1155.86 398.458 1156.92C405.89 1157.98 417.569 1158.27 431.703 1157.6C445.838 1156.92 462.435 1155.28 473.34 1154.08C484.245 1152.88 489.457 1152.1 492.303 1152.01C495.15 1151.91 495.635 1152.49 500.266 1151.67C504.897 1150.85 513.678 1148.64 519.178 1147.39C524.679 1146.13 526.898 1145.84 527.864 1144.69C528.829 1143.53 528.541 1141.51 528.637 1140.4C528.733 1139.29 529.213 1139.1 529.648 1138.23C530.083 1137.36 530.473 1135.82 530.038 1131.39C529.603 1126.96 528.349 1119.64 527.333 1115.97C526.322 1112.31 525.548 1112.31 524.679 1110.87C523.809 1109.43 522.849 1106.54 521.302 1098.83C519.76 1091.12 517.637 1078.6 516.722 1071.75C515.801 1064.91 516.095 1063.76 517.637 1062.94C519.178 1062.12 521.979 1061.64 532.737 1057.3C543.501 1052.97 562.221 1044.78 571.821 1040.59C581.422 1036.4 581.907 1036.21 583.737 1039.72C585.572 1043.24 588.757 1050.47 590.83 1057.3C592.908 1064.14 593.874 1070.6 593.676 1077.15C593.484 1083.7 592.134 1090.35 590.107 1098.44C588.08 1106.54 585.38 1116.08 583.206 1122.48C581.038 1128.89 579.394 1132.16 577.757 1135.2C576.113 1138.23 574.476 1141.03 573.126 1143.34C571.771 1145.65 570.709 1147.48 569.071 1150.47C567.434 1153.46 565.209 1157.6 564.536 1160.2C563.859 1162.8 564.729 1163.86 571.432 1162.17C578.141 1160.49 590.689 1156.06 600.82 1150.51C610.951 1144.97 618.67 1138.33 625.04 1131.2C631.41 1124.07 636.431 1116.46 642.552 1108.03C648.685 1099.6 655.919 1090.35 660.409 1083.99C664.893 1077.63 666.632 1074.17 667.016 1072.09C667.406 1070.02 666.44 1069.35 665.762 1068.48C665.09 1067.61 664.701 1066.55 663.255 1064.14C661.804 1061.73 659.296 1057.98 655.874 1054.46C652.446 1050.94 648.104 1047.67 645.545 1046.32C642.987 1044.97 642.219 1045.55 640.915 1045.07C639.61 1044.59 637.781 1043.05 633.099 1038.62C628.417 1034.18 620.89 1026.86 617.276 1022.77C613.656 1018.67 613.944 1017.8 614.379 1017.03C614.813 1016.26 615.389 1015.59 611.431 1007.54C607.478 999.496 598.984 984.083 587.6 962.695C576.209 941.306 561.927 913.947 548.611 890.681C535.295 867.415 522.945 848.241 516.332 837.158C509.725 826.08 508.855 823.092 508.663 810.233C508.466 797.374 508.951 774.632 509.533 751.129C510.109 727.62 510.787 703.34 509.533 684.505C508.274 665.67 505.089 652.28 500.893 641.056C496.697 629.832 491.485 620.778 486.566 610.422C481.642 600.06 477.011 588.407 475.61 581.952C474.21 575.492 476.045 574.24 475.514 570.339C474.983 566.438 472.086 559.887 473.103 556.465C474.114 553.048 479.038 552.755 483.81 550.731C488.588 548.713 493.224 544.953 494.331 539.654C495.443 534.354 493.026 527.516 492.061 522.843C491.101 518.169 491.581 515.666 494.811 512.774C498.047 509.882 504.033 506.612 505.043 502.322C506.054 498.037 502.101 492.738 499.882 487.241C497.657 481.756 497.177 476.068 498.481 471.541C499.786 467.014 502.869 463.643 504.993 457.954C507.116 452.272 508.274 444.278 506.687 438.06C505.089 431.847 500.746 427.416 500.458 422.985C500.17 418.554 503.931 414.117 503.982 409.979C504.033 405.841 500.362 401.979 499.057 398.8C497.759 395.626 498.82 393.117 497.567 390.225C496.313 387.339 492.738 384.058 490.999 380.929C489.265 377.8 489.361 374.812 488.108 370.234C486.854 365.662 484.245 359.495 484.296 352.076C484.346 344.662 487.046 335.986 486.707 326.639C486.368 317.298 482.991 307.274 480.388 297.11C477.779 286.951 475.949 276.634 471.217 266.616C466.49 256.598 458.866 246.868 448.781 239.646C438.7 232.419 426.152 227.7 418.433 225.293C410.713 222.88 407.822 222.784 404.975 223.173C402.124 223.551 399.328 224.425 398.842 225.192C398.362 225.964 400.198 226.641 399.667 227.221C399.136 227.791 396.239 228.281 393.681 228.614C391.123 228.952 388.903 229.144 386.492 227.791C384.081 226.443 381.472 223.557 379.207 219.126C376.937 214.695 375.011 208.719 371.922 204.818C368.833 200.911 364.587 199.084 362.175 197.111C359.764 195.132 359.182 193.013 359.617 191.908C360.052 190.797 361.498 190.701 361.063 189.686C360.628 188.677 358.313 186.755 356.144 186.704C353.97 186.653 351.943 188.486 350.593 188.294C349.243 188.097 348.571 185.887 347.555 183.767C346.544 181.647 345.189 179.618 342.63 178.659C340.078 177.695 336.311 177.791 334.431 178.468C332.55 179.139 332.55 180.39 332.595 182.127C332.646 183.863 332.742 186.078 329.41 187.234C326.084 188.395 319.33 188.486 313.587 189.935C307.844 191.378 303.117 194.174 298.774 196.824C294.432 199.473 290.473 201.971 287.435 203.611C284.397 205.252 282.273 206.018 279.184 206.018C276.095 206.018 272.046 205.252 269.488 205.782C266.93 206.312 265.868 208.138 266.111 210.399C266.348 212.665 267.896 215.365 268.426 217.096C268.957 218.833 268.472 219.605 267.512 220.665C266.546 221.725 265.095 223.072 264.372 224.611C263.649 226.156 263.649 227.892 263.259 229.533C262.875 231.162 262.102 232.707 260.317 233.913C258.533 235.119 255.737 235.988 254.286 237.329C252.84 238.677 252.744 240.509 251.152 241.958C249.559 243.407 246.47 244.466 244.11 246.434C241.743 248.413 240.1 251.305 242.85 256.982C245.601 262.67 252.744 271.149 256.799 277.023C260.848 282.903 261.814 286.173 261.718 288.49C261.622 290.801 260.464 292.149 256.511 290.514C252.552 288.879 245.798 284.251 238.174 280.592C230.551 276.927 222.057 274.233 214.914 269.988C207.776 265.748 201.987 259.97 200.728 256.215C199.474 252.455 202.755 250.724 201.694 248.413C200.632 246.096 195.228 243.209 190.501 239.551C185.774 235.886 181.72 231.461 176.897 227.982C172.069 224.521 166.472 222.012 161.937 218.066C157.403 214.114 153.93 208.719 150.361 203.899C146.786 199.084 143.121 194.845 145.052 195.324C146.978 195.803 154.506 201.012 157.883 204.767C161.26 208.527 160.492 210.839 162.513 212.958C164.541 215.078 169.369 217.006 171.973 219.216C174.582 221.437 174.966 223.94 175.835 225.772C176.699 227.599 178.055 228.76 180.946 227.311C183.843 225.863 188.282 221.82 189.756 217.66C191.224 213.488 189.727 209.198 187.92 205.9C186.107 202.596 183.984 200.291 181.861 199.372C179.737 198.458 177.62 198.938 175.734 198.554C173.853 198.171 172.215 196.914 171.199 195.206C170.188 193.492 169.798 191.333 170.911 189.884C172.018 188.435 174.627 187.713 175.83 185.644C177.038 183.575 176.846 180.148 175.711 177.476C174.576 174.809 172.503 172.881 169.46 170.158C166.421 167.435 162.417 163.923 159.786 160.569C157.16 157.226 155.906 154.046 157.087 151.853C158.267 149.66 161.887 148.448 164.88 145.81C167.873 143.16 170.233 139.061 169.392 135.403C168.545 131.744 164.49 128.514 162.203 124.466C159.91 120.418 159.379 115.558 159.645 112.807C159.91 110.062 160.972 109.43 161.768 108.23C162.564 107.023 163.095 105.242 164.467 104.334C165.845 103.415 168.065 103.364 169.533 103.049C171.007 102.744 171.73 102.164 172.215 101.031C172.695 99.8974 172.938 98.2118 173.588 97.0786C174.237 95.9455 175.299 95.3648 176.027 94.3839C176.75 93.3973 177.134 91.9992 177.326 91.0634C177.518 90.1163 177.518 89.6371 178.557 89.5412C179.596 89.4454 181.669 89.7385 182.804 89.5638C183.939 89.3947 184.131 88.7689 183.888 87.2806C183.645 85.781 182.973 83.4189 182.42 81.2089C181.861 78.9934 181.426 76.9188 182.177 74.6299C182.922 72.3411 184.854 69.838 186.785 65.9876C188.711 62.1315 190.642 56.9281 191.416 52.7901C192.189 48.6409 191.8 45.5628 192.189 43.4431C192.573 41.3234 193.731 40.1677 190.84 34.1975C187.943 28.2161 180.997 17.4315 172.791 10.3958C164.592 3.36016 155.133 0.0903889 144.228 1.82111C133.323 3.55748 120.973 10.2943 113.445 18.5815C105.917 26.8687 103.218 36.6949 102.924 45.2696C102.636 53.8443 104.76 61.1675 106.301 65.5986C107.849 70.0353 108.814 71.5744 108.425 71.1854C108.041 70.802 106.301 68.485 103.116 69.6464C99.9314 70.802 95.3007 75.4248 90.574 79.8616C85.8473 84.287 81.019 88.5265 77.93 92.5742C74.8466 96.622 73.4913 100.472 69.4422 103.945C65.3876 107.412 58.6335 110.49 54.2908 116.658C49.9482 122.825 48.0168 132.076 45.5095 139.682C42.9965 147.298 39.9131 153.274 38.1738 157.896C36.4401 162.519 36.0504 165.795 33.7351 174.369C31.4197 182.944 27.1731 196.818 24.3721 207.608C21.5767 218.404 20.227 226.111 19.9334 233.236C19.6454 240.368 20.419 246.913 24.7617 257.128C29.1044 267.338 37.0161 281.212 41.3588 289.888C45.7015 298.553 46.4751 302.026 47.4408 309.343C48.4008 316.666 49.5585 327.846 49.8522 336.804C50.1402 345.762 49.5585 352.51 49.7562 356.067C49.9482 359.636 50.9138 360.025 51.8795 362.043C52.8452 364.072 53.8052 367.731 55.5445 373.031C57.2839 378.33 59.7912 385.264 60.1752 390.372C60.5592 395.474 58.8255 398.749 59.4072 401.551C59.9832 404.341 62.8802 406.653 67.2229 408.767C71.5599 410.887 77.3539 412.815 84.108 414.557C90.862 416.287 98.5817 417.826 103.02 417.545C107.459 417.246 108.622 415.126 111.706 415.036C114.795 414.934 119.815 416.862 124.734 418.407C129.658 419.946 134.481 421.102 138.728 421.102C142.974 421.102 146.639 419.946 148.475 418.215C150.304 416.479 150.304 414.168 147.029 410.509C143.742 406.85 137.186 401.833 132.646 397.791C128.111 393.743 125.603 390.665 122.61 384.108C119.623 377.557 116.144 367.534 114.219 359.546C112.287 351.546 111.898 345.57 110.74 340.372C109.582 335.163 107.657 330.732 107.657 326.594C107.657 322.451 109.582 318.6 109.102 315.798C108.622 313.008 105.725 311.271 105.336 308.672C104.952 306.073 107.075 302.606 107.459 299.427C107.849 296.247 106.493 293.35 106.013 290.655C105.528 287.96 105.917 285.451 104.76 279.284C103.602 273.122 100.897 263.29 99.5474 257.32C98.1977 251.35 98.1977 249.23 99.8354 253.081C101.479 256.931 104.76 266.763 108.041 274.757C111.322 282.751 114.603 288.918 120.199 295.086C125.795 301.253 133.707 307.421 144.708 315.99C155.709 324.57 169.798 335.552 179.833 342.007C189.874 348.462 195.854 350.39 196.724 354.816C197.594 359.247 193.347 366.192 191.608 372.45C189.874 378.708 190.642 384.3 189.1 392.204ZM83.7296 366.863C85.1245 368.261 87.8295 372.213 89.6648 375.049C91.4945 377.896 92.4602 379.626 93.183 381.746C93.9115 383.866 94.3915 386.375 94.5835 387.869C94.7755 389.363 94.6795 389.836 93.375 389.114C92.0761 388.398 89.5632 386.47 87.9706 384.159C86.3838 381.848 85.7061 379.147 85.1753 376.932C84.6445 374.711 84.2605 372.98 83.7748 371.531C83.2948 370.093 82.7131 368.932 82.4759 367.782C82.2331 366.621 82.3291 365.465 83.7296 366.863Z" fill="#212121" fill-opacity="0.2"/>
</g>
<defs>
<clipPath id="clip0_231_2614">
<rect width="1171" height="1169" fill="white" transform="translate(-242)"/>
</clipPath>
</defs>
</svg>
