<svg width="554" height="607" viewBox="0 0 800 700" fill="none" xmlns="http://www.w3.org/2000/svg">
<g clip-path="url(#clip0_231_2846)">
<path d="M422.23 180.334H153.639C148.364 180.334 144.047 184.59 144.047 189.791C144.047 194.992 148.364 199.248 153.639 199.248H422.23C427.505 199.248 431.822 194.992 431.822 189.791C431.822 184.59 427.505 180.334 422.23 180.334Z" fill="#212121" fill-opacity="0.2"/>
<path d="M422.23 227.623H153.639C148.364 227.623 144.047 231.879 144.047 237.08C144.047 242.281 148.364 246.537 153.639 246.537H422.23C427.505 246.537 431.822 242.281 431.822 237.08C431.822 231.879 427.505 227.623 422.23 227.623Z" fill="#212121" fill-opacity="0.2"/>
<path d="M422.23 274.912H153.639C148.364 274.912 144.047 279.168 144.047 284.369C144.047 289.573 148.364 293.829 153.639 293.829H422.23C427.505 293.829 431.822 289.573 431.822 284.369C431.822 279.168 427.505 274.912 422.23 274.912Z" fill="#212121" fill-opacity="0.2"/>
<path d="M422.23 322.204H319.59L337.815 341.118H422.23C427.505 341.118 431.822 336.862 431.822 331.661C431.822 326.46 427.505 322.204 422.23 322.204Z" fill="#212121" fill-opacity="0.2"/>
<path d="M144.047 331.661C144.047 336.862 148.364 341.118 153.639 341.118H237.095L255.32 322.204H153.639C148.364 322.204 144.047 326.46 144.047 331.661Z" fill="#212121" fill-opacity="0.2"/>
<path d="M144.047 378.95C144.047 384.151 148.364 388.407 153.639 388.407H191.531L209.756 369.493H153.639C148.364 369.493 144.047 373.749 144.047 378.95Z" fill="#212121" fill-opacity="0.2"/>
<path d="M422.23 388.407C427.505 388.407 431.822 384.151 431.822 378.95C431.822 373.749 427.505 369.493 422.23 369.493H365.155L383.38 388.407H422.23Z" fill="#212121" fill-opacity="0.2"/>
<path d="M287.935 402.594C272.107 402.594 259.156 415.363 259.156 430.969C259.156 446.575 272.107 459.344 287.935 459.344C303.762 459.344 316.713 446.575 316.713 430.969C316.713 415.363 303.762 402.594 287.935 402.594ZM287.935 440.426C282.66 440.426 278.343 436.17 278.343 430.969C278.343 425.768 282.66 421.512 287.935 421.512C293.21 421.512 297.526 425.768 297.526 430.969C297.526 436.17 293.21 440.426 287.935 440.426Z" fill="#212121" fill-opacity="0.2"/>
<mask id="mask0_231_2846" style="mask-type:luminance" maskUnits="userSpaceOnUse" x="450" y="184" width="89" height="371">
<path d="M450.385 184.967H538.297V554.153H450.385V184.967Z" fill="white"/>
</mask>
<g mask="url(#mask0_231_2846)">
<path d="M508.561 185.061H479.783C463.955 185.061 451.005 197.829 451.005 213.435V481.569C451.005 483.933 451.486 486.3 452.925 488.189L486.019 548.721C487.458 551.558 490.814 553.925 494.653 553.925C498.489 553.925 501.367 552.032 503.286 548.721L536.378 488.189C537.339 486.3 538.297 483.933 538.297 481.569V213.435C537.339 197.829 524.389 185.061 508.561 185.061ZM518.153 255.997V468.801H470.191V255.997H518.153ZM479.783 203.978H508.561C513.836 203.978 518.153 208.234 518.153 213.435V237.08H470.191V213.435C470.191 208.234 474.508 203.978 479.783 203.978ZM494.172 524.602L474.028 487.718H514.317L494.172 524.602Z" fill="#212121" fill-opacity="0.2"/>
</g>
<path d="M153.639 85.7527H201.6C206.878 85.7527 211.195 81.4965 211.195 76.2955C211.195 71.0915 206.878 66.8353 201.6 66.8353H153.639C148.364 66.8353 144.047 71.0915 144.047 76.2955C144.047 81.4965 148.364 85.7527 153.639 85.7527Z" fill="#212121" fill-opacity="0.2"/>
<mask id="mask1_231_2846" style="mask-type:luminance" maskUnits="userSpaceOnUse" x="76" y="0" width="423" height="607">
<path d="M76.8997 0H498.993V606.573H76.8997V0Z" fill="white"/>
</mask>
<g mask="url(#mask1_231_2846)">
<path d="M479.783 569.057V577.569C479.783 582.77 475.466 587.027 470.191 587.027H417.433V460.763C417.433 454.614 414.555 447.52 410.238 443.264L299.446 328.824C296.568 325.986 292.729 322.204 287.454 322.204C281.698 322.204 278.343 325.986 275.465 329.295L165.15 443.264C161.314 447.52 158.436 454.614 158.436 460.763V587.027H105.678C100.4 587.027 96.086 582.77 96.086 577.569V29.0035C96.086 23.8025 100.4 19.5463 105.678 19.5463H342.61L341.171 121.692C341.171 137.298 353.643 150.067 369.471 150.54L479.783 151.959V166.146H498.969V147.703C498.969 145.339 498.008 142.973 496.092 141.083L361.796 3.4693C360.357 1.57668 357.96 0.631836 355.082 0.631836H105.678C89.8498 0.631836 76.8997 13.3975 76.8997 29.0035V577.569C76.8997 593.175 89.8498 605.941 105.678 605.941H470.191C486.019 605.941 498.969 593.175 498.969 577.569V572.365C497.531 572.839 495.611 572.839 494.172 572.839C488.897 572.839 484.1 571.421 479.783 569.057ZM369.949 131.623C364.674 131.623 360.357 127.367 360.357 122.166L361.796 31.37L462.039 133.042L369.949 131.623ZM259.157 587.027V511.363C259.157 506.162 263.473 501.906 268.748 501.906H307.118C312.396 501.906 316.713 506.162 316.713 511.363V587.027H259.157ZM335.896 587.027V511.363C335.896 495.757 322.946 482.988 307.118 482.988H268.748C252.92 482.988 239.97 495.757 239.97 511.363V587.027H177.62V460.763C177.62 459.818 178.581 456.98 179.539 456.032L287.454 343.482L396.33 456.032C397.288 456.98 398.246 459.344 398.246 460.289V587.027H335.896Z" fill="#212121" fill-opacity="0.2"/>
</g>
</g>
<defs>
<clipPath id="clip0_231_2846">
<rect width="615.197" height="606.573" fill="white"/>
</clipPath>
</defs>
</svg>

