<svg xmlns="http://www.w3.org/2000/svg" xmlns:xlink="http://www.w3.org/1999/xlink" width="200rem" viewBox="0 0 900 900" height="200rem" preserveAspectRatio="xMidYMid meet" version="1.0"><defs><clipPath id="d884b1162e"><path d="M 0 148.332031 L 810 148.332031 L 810 661.332031 L 0 661.332031 Z M 0 148.332031 "/></clipPath></defs><g clip-path="url(#d884b1162e)">
<path fill="#212121" d="M 660.648438 363.148438 C 647.246094 363.148438 634.261719 364.957031 621.898438 368.28125 L 563.882812 197.546875 L 592.363281 185.589844 C 596.507812 190.417969 602.640625 193.484375 609.5 193.484375 C 621.976562 193.484375 632.09375 183.375 632.09375 170.90625 C 632.09375 158.4375 621.976562 148.328125 609.5 148.328125 C 598.410156 148.328125 589.203125 156.320312 587.292969 166.855469 L 548.15625 183.28125 C 543.5 185.230469 541.144531 190.453125 542.769531 195.238281 L 556.472656 235.5625 L 301.839844 315.78125 L 292.8125 290.96875 C 319.878906 284.523438 368.292969 280.894531 366.90625 278.402344 C 365.21875 275.371094 363.199219 267.28125 349.035156 262.226562 C 336.640625 257.800781 249.867188 259.316406 228.390625 259.761719 C 225.207031 259.828125 222.3125 261.558594 220.707031 264.308594 C 218.3125 268.414062 215.226562 274.816406 214.820312 281.09375 C 214.191406 290.785156 254.742188 303.066406 274.617188 297.273438 L 283.457031 321.566406 L 268.792969 326.183594 C 266.753906 326.828125 264.984375 328.132812 263.765625 329.890625 L 226.113281 384.394531 C 203.695312 370.917969 177.46875 363.148438 149.457031 363.148438 C 67.199219 363.148438 0.273438 430.03125 0.273438 512.242188 C 0.273438 594.449219 67.199219 661.332031 149.457031 661.332031 C 225.609375 661.332031 288.574219 604.007812 297.515625 530.277344 L 322.640625 530.277344 C 328.414062 530.277344 333.566406 527.515625 336.875 523.265625 L 363.59375 523.460938 C 363.601562 523.460938 363.613281 523.460938 363.625 523.460938 C 363.636719 523.460938 363.652344 523.464844 363.667969 523.464844 C 364.273438 523.464844 364.882812 523.390625 365.496094 523.273438 C 365.699219 523.234375 365.890625 523.167969 366.089844 523.113281 C 366.378906 523.035156 366.671875 522.984375 366.960938 522.882812 C 367.050781 522.847656 367.128906 522.792969 367.222656 522.753906 C 367.519531 522.636719 367.800781 522.488281 368.082031 522.339844 C 368.382812 522.183594 368.683594 522.03125 368.960938 521.847656 C 369.203125 521.6875 369.417969 521.507812 369.644531 521.328125 C 369.925781 521.097656 370.207031 520.871094 370.460938 520.617188 C 370.53125 520.542969 370.621094 520.492188 370.695312 520.414062 L 420.285156 467.4375 C 428.820312 470.496094 438.765625 468.484375 445.371094 461.515625 L 538.007812 363.722656 C 544.890625 356.457031 546.179688 345.871094 542.070312 337.332031 L 578.007812 298.941406 L 603.671875 374.472656 C 549.597656 396.890625 511.460938 450.1875 511.460938 512.238281 C 511.460938 594.449219 578.386719 661.328125 660.648438 661.328125 C 742.90625 661.328125 809.832031 594.449219 809.832031 512.238281 C 809.832031 430.027344 742.910156 363.148438 660.648438 363.148438 Z M 277.738281 343.542969 L 290.050781 339.667969 L 349.890625 504.121094 L 338.683594 504.039062 C 335.679688 498.214844 329.613281 494.207031 322.644531 494.207031 L 297.519531 494.207031 C 292.671875 454.273438 271.984375 419.171875 241.921875 395.371094 Z M 149.457031 553.921875 C 126.460938 553.921875 107.75 535.222656 107.75 512.242188 C 107.75 489.257812 126.460938 470.558594 149.457031 470.558594 C 172.457031 470.558594 191.167969 489.257812 191.167969 512.242188 C 191.167969 535.222656 172.457031 553.921875 149.457031 553.921875 Z M 271.648438 494.207031 L 211.007812 494.207031 C 207.757812 483.117188 201.589844 473.304688 193.398438 465.59375 L 227.316406 416.503906 C 250.738281 435.558594 267.050781 463 271.648438 494.207031 Z M 149.457031 635.679688 C 81.351562 635.679688 25.9375 580.304688 25.9375 512.242188 C 25.9375 444.175781 81.351562 388.800781 149.457031 388.800781 C 172.058594 388.800781 193.242188 394.925781 211.484375 405.558594 L 177.558594 454.65625 C 169.0625 450.507812 159.550781 448.117188 149.460938 448.117188 C 114.023438 448.117188 85.296875 476.824219 85.296875 512.242188 C 85.296875 547.65625 114.023438 576.367188 149.460938 576.367188 C 178.628906 576.367188 203.207031 556.902344 211.011719 530.277344 L 271.648438 530.277344 C 262.886719 589.820312 211.4375 635.679688 149.457031 635.679688 Z M 527.296875 324.957031 C 519.152344 322.691406 510.03125 324.863281 503.839844 331.394531 L 411.203125 429.1875 C 404.726562 436.019531 403.207031 445.792969 406.464844 454.039062 L 367.355469 495.824219 L 308.421875 333.875 L 562.664062 253.789062 L 570.988281 278.285156 Z M 660.648438 635.679688 C 592.539062 635.679688 537.128906 580.304688 537.128906 512.242188 C 537.128906 461.453125 567.984375 417.742188 611.945312 398.820312 L 651.535156 515.335938 C 652.894531 519.339844 656.640625 521.863281 660.648438 521.863281 C 661.671875 521.863281 662.71875 521.695312 663.742188 521.347656 C 668.777344 519.640625 671.472656 514.179688 669.761719 509.148438 L 630.164062 392.613281 C 639.917969 390.128906 650.128906 388.800781 660.648438 388.800781 C 728.757812 388.800781 784.167969 444.175781 784.167969 512.242188 C 784.167969 580.304688 728.757812 635.679688 660.648438 635.679688 Z M 660.648438 635.679688 " fill-opacity="0.2" fill-rule="nonzero"/>
</g></svg>
