<svg xmlns="http://www.w3.org/2000/svg" xmlns:xlink="http://www.w3.org/1999/xlink" width="600" zoomAndPan="magnify" viewBox="0 0 600 600" height="600" preserveAspectRatio="xMidYMid meet" version="1.0"><path d="M 529.222656 228.226562 C 608.5 228.226562 661.382812 278.019531 710.554688 293.152344 L 775.632812 313.101562 C 787.578125 316.773438 796.859375 322.039062 802.808594 330.285156 C 808.753906 338.527344 810.253906 348.304688 810.253906 358.304688 L 810.253906 453.503906 C 810.253906 468.402344 806.992188 482.003906 798.0625 492.003906 C 789.136719 502.003906 775.394531 506.832031 759.429688 506.832031 L 708.945312 506.832031 C 703.222656 548.972656 666.871094 581.625 623.128906 581.625 C 579.394531 581.625 543.058594 548.972656 537.335938 506.832031 L 274.644531 506.832031 C 268.921875 548.972656 232.59375 581.625 188.851562 581.625 C 145.117188 581.625 108.828125 548.972656 103.117188 506.832031 L 46.132812 506.832031 C 19.648438 506.832031 0.582031 481.648438 0.582031 453.496094 L 0.582031 427.445312 C 0.582031 407.027344 5.875 390.578125 15.40625 378.558594 C 24.933594 366.539062 38.226562 359.425781 52.171875 355.875 L 239 308.203125 C 269.402344 296.722656 296.324219 277.480469 326.949219 260.296875 C 357.65625 243.0625 392.503906 228.203125 437.214844 228.203125 L 529.222656 228.203125 Z M 529.222656 251.347656 L 437.207031 251.347656 C 397.523438 251.347656 367.4375 264.039062 338.242188 280.429688 C 309.042969 296.816406 281.125 317.203125 246.90625 330.070312 L 246.285156 330.210938 L 57.875 378.34375 C 47.527344 380.976562 39.378906 385.621094 33.542969 392.976562 C 31.113281 396.039062 29.125 399.824219 27.484375 404.199219 L 37.542969 404.199219 C 53.414062 404.199219 66.453125 417.230469 66.453125 433.117188 C 66.453125 449.003906 53.414062 462.035156 37.542969 462.035156 L 24.667969 462.035156 C 27.542969 475.21875 36.746094 483.65625 46.109375 483.65625 L 103.097656 483.65625 C 105.636719 465.035156 114.125 447.609375 127.601562 434.167969 C 143.851562 417.976562 165.867188 408.863281 188.828125 408.863281 C 232.574219 408.863281 268.890625 441.535156 274.625 483.65625 L 537.3125 483.65625 C 539.855469 465.035156 548.339844 447.609375 561.816406 434.167969 C 578.070312 417.976562 600.144531 408.863281 623.109375 408.863281 C 666.851562 408.863281 703.191406 441.535156 708.921875 483.65625 L 759.410156 483.65625 C 771.089844 483.65625 777.007812 480.84375 780.8125 476.585938 C 784.609375 472.320312 787.128906 465.015625 787.128906 453.527344 L 787.128906 358.324219 C 787.128906 350.578125 786.015625 346.589844 784.035156 343.855469 C 782.058594 341.121094 778.109375 338.140625 768.753906 335.261719 L 703.761719 315.234375 C 646.410156 297.558594 598.542969 251.347656 529.222656 251.347656 Z M 37.5625 419.558594 L 24.1875 419.558594 C 23.953125 422.097656 23.6875 424.589844 23.6875 427.464844 L 23.6875 446.597656 L 37.550781 446.597656 C 45.121094 446.597656 51.019531 440.742188 51.019531 433.109375 C 51.027344 425.464844 45.132812 419.558594 37.5625 419.558594 Z M 623.140625 431.964844 C 606.285156 431.964844 590.097656 438.628906 578.191406 450.496094 C 566.285156 462.363281 559.582031 478.496094 559.582031 495.238281 C 559.582031 530.289062 587.921875 558.511719 623.140625 558.511719 C 658.363281 558.511719 686.621094 530.289062 686.621094 495.238281 C 686.613281 460.210938 658.355469 431.964844 623.140625 431.964844 Z M 188.851562 431.964844 C 171.996094 431.964844 155.867188 438.628906 143.964844 450.496094 C 132.058594 462.363281 125.375 478.496094 125.375 495.238281 C 125.375 530.289062 153.644531 558.511719 188.859375 558.511719 C 224.085938 558.511719 252.414062 530.289062 252.414062 495.238281 C 252.417969 460.210938 224.078125 431.964844 188.851562 431.964844 Z M 188.851562 431.964844 " fill="#212121" fill-opacity="0.2"/><path d="M 547.679688 271.613281 C 564.785156 271.613281 573.355469 272.449219 587.363281 280.121094 L 642.492188 310.324219 C 658.722656 319.222656 666.984375 332.703125 665.382812 345.496094 C 663.78125 358.304688 651.570312 367.945312 636.167969 367.945312 L 519.144531 367.945312 C 507.585938 367.945312 498.363281 358.160156 498.363281 346.628906 L 498.363281 292.929688 C 498.363281 281.398438 507.585938 271.613281 519.144531 271.613281 Z M 547.679688 287.050781 L 519.132812 287.050781 C 516.144531 287.050781 513.71875 289.386719 513.71875 292.929688 L 513.71875 346.628906 C 513.71875 350.160156 516.144531 352.507812 519.132812 352.507812 L 636.167969 352.507812 C 646 352.507812 649.5 348.445312 650.101562 343.621094 C 650.703125 338.792969 647.644531 330.742188 635.117188 323.886719 L 580.824219 294.132812 C 567.09375 287.980469 563.796875 287.050781 547.679688 287.050781 Z M 547.679688 287.050781 " fill="#212121" fill-opacity="0.2"/><path d="M 458.894531 271.613281 C 470.453125 271.613281 479.757812 281.398438 479.757812 292.929688 L 479.757812 346.628906 C 479.757812 358.160156 470.453125 367.945312 458.894531 367.945312 L 307.984375 367.945312 C 297.527344 367.945312 288.855469 361.773438 286.671875 353.40625 C 284.488281 345.039062 288.816406 335.792969 297.210938 330.957031 C 315.675781 320.335938 356.695312 296.507812 376.210938 285.4375 C 395.726562 274.378906 407.539062 271.601562 428.390625 271.601562 L 458.894531 271.601562 Z M 458.894531 287.050781 L 428.390625 287.050781 C 408.519531 287.050781 402.417969 288.304688 383.566406 299.03125 C 364.722656 309.753906 323.429688 333.703125 304.882812 344.367188 C 301.414062 346.355469 301.25 348.355469 301.566406 349.558594 C 301.882812 350.773438 302.648438 352.496094 307.964844 352.496094 L 458.894531 352.496094 C 461.875 352.496094 464.3125 350.160156 464.3125 346.621094 L 464.3125 292.917969 C 464.3125 289.386719 461.875 287.050781 458.894531 287.050781 Z M 458.894531 287.050781 " fill="#212121" fill-opacity="0.2"/><path d="M 623.140625 463.609375 C 640.511719 463.609375 654.84375 477.871094 654.84375 495.238281 C 654.84375 512.605469 640.511719 526.800781 623.140625 526.800781 C 605.765625 526.800781 591.433594 512.605469 591.433594 495.238281 C 591.433594 477.871094 605.765625 463.609375 623.140625 463.609375 Z M 623.140625 481.015625 C 615.121094 481.015625 608.828125 487.3125 608.828125 495.25 C 608.828125 503.199219 615.109375 509.484375 623.140625 509.484375 C 631.15625 509.484375 637.453125 503.1875 637.453125 495.25 C 637.441406 487.300781 631.15625 481.015625 623.140625 481.015625 Z M 623.140625 481.015625 " fill="#212121" fill-opacity="0.2"/><path d="M 188.851562 463.609375 C 206.222656 463.609375 220.558594 477.871094 220.558594 495.238281 C 220.558594 512.605469 206.222656 526.800781 188.851562 526.800781 C 171.476562 526.800781 157.226562 512.605469 157.226562 495.238281 C 157.226562 477.871094 171.46875 463.609375 188.851562 463.609375 Z M 188.851562 481.015625 C 180.832031 481.015625 174.539062 487.3125 174.539062 495.25 C 174.539062 503.199219 180.820312 509.484375 188.851562 509.484375 C 196.867188 509.484375 203.234375 503.1875 203.234375 495.25 C 203.222656 487.300781 196.867188 481.015625 188.851562 481.015625 Z M 188.851562 481.015625 " fill="#212121" fill-opacity="0.2"/></svg>
