<svg width="100" height="100" viewBox="1 1 600 700" xmlns="http://www.w3.org/2000/svg">
<path d="M659.496 36.9607H1077V210.788H659.496V36.9607Z" fill="white"/>
<path d="M683.793 39.4373C676.023 38.3311 668.232 37.0609 660.343 36.9653C683.092 40.0474 705.587 44.9185 727.074 52.2116C746.888 58.9264 765.602 68.1088 782.508 79.3943C798.24 89.7193 812.331 101.774 827.279 112.928C844.107 125.188 862.498 135.704 881.508 145.15C922.275 165.236 965.856 180.582 1010.21 193.379C1029.34 198.815 1048.62 203.85 1068.11 208.188C1070.99 208.753 1073.81 209.627 1076.77 209.786C1065.65 207.41 1054.73 204.351 1043.76 201.51C997.284 188.963 951.552 173.849 908.376 154.119C877.903 140.133 848.683 123.722 823.067 103.5C816.959 98.8607 811.458 93.6527 805.272 89.0866C771.045 63.0646 728.195 46.4982 683.793 39.4373Z" fill="#212121" fill-opacity="0.2"/>
<path d="M575.984 42.615C526.694 39.7788 477.207 43.134 428.38 49.1933C415.613 50.0492 403.693 54.3513 391.675 57.8567C354.014 69.1923 316.753 81.6615 280.63 96.3751C311.476 93.9577 342.473 93.1565 373.439 93.0882C410.451 92.9425 447.452 93.8894 484.411 95.4919C493.21 95.9198 502.107 96.1657 510.812 94.7499C517.719 93.6254 524.534 91.3173 529.946 87.2929C544.655 75.7251 558.626 63.3606 574.514 53.0037C577.257 51.1053 580.68 49.8033 582.648 47.1675C583.411 46.2888 583.547 44.8502 582.383 44.181C580.55 43.0065 578.176 42.8426 575.984 42.615Z" fill="#212121" fill-opacity="0.2"/>
<path d="M654.9 50.4816C642.315 49.3481 629.424 49.8807 617.244 53.0447C601.039 57.0918 586.424 65.2863 574.53 75.6659C564.537 84.3247 556.419 94.5131 549.625 105.262C598.333 106.991 647.047 108.576 695.755 110.333C702.45 97.5496 711.092 85.3854 722.493 75.4201C724.368 73.6856 726.965 72.3107 727.801 69.907C727.946 68.0132 725.567 67.1983 723.973 66.5018C715.741 63.4653 707.275 60.9523 698.746 58.6351C684.442 54.8201 669.806 51.7609 654.9 50.4816Z" fill="#212121" fill-opacity="0.2"/>
<path d="M750.228 77.1727C747.018 75.7842 743.881 73.8357 740.183 73.7083C737.352 73.9723 735.176 75.8069 733.041 77.3002C726.788 82.2441 721.927 88.3581 717.309 94.4857C714.738 97.982 712.292 101.542 710.033 105.202C709.264 106.532 708.386 108.157 709.155 109.636C710.287 111.161 712.614 110.984 714.421 111.029C727.775 110.875 741.128 111.079 754.476 111.425C767.253 111.922 780.061 112.532 792.698 114.33C797.295 115.036 801.959 115.796 806.239 117.498C796.5 102.917 781.308 91.6996 764.605 83.5826C759.935 81.238 755.048 79.2623 750.228 77.1727Z" fill="#212121" fill-opacity="0.2"/>
<path d="M440.388 102.744C411.203 102.125 382.019 101.46 352.861 100.277C321.396 99.3387 289.844 99.7303 258.483 102.28C231.355 104.365 204.275 106.9 177.277 110.023C163.035 111.708 148.815 113.515 134.724 115.987C113.849 119.547 92.7364 123.175 73.1607 130.705C67.2761 133.009 61.5161 135.599 56.0625 138.604C67.1722 134.843 78.5675 131.634 90.2797 129.672C95.2554 128.78 100.319 128.343 105.295 127.473C110.946 127.063 116.623 127.514 122.279 127.455C139.876 127.573 157.519 128.06 174.976 130.159C177.251 130.478 179.895 130.837 181.313 132.617C182.575 134.365 181.624 136.51 180.72 138.212C174.664 147.568 169.242 157.228 163.627 166.793C159.779 173.535 155.769 180.204 152.045 186.997C167.326 165.627 188.402 147.527 212.824 134.247C217 131.994 221.269 129.854 225.705 128.015C231.735 125.584 238.253 124.25 244.787 123.344C257.356 121.919 269.754 119.561 282.25 117.749C341.839 108.69 402.249 103.377 462.742 103.299C455.299 102.84 447.841 102.935 440.388 102.744Z" fill="#212121" fill-opacity="0.2"/>
<path d="M291.641 131.757C282.204 133.491 272.688 136.505 265.443 142.278C261.241 145.555 258.14 149.93 256.8 154.729C255.917 157.879 256.38 161.421 258.603 164.079C261.293 167.334 265.588 169.219 269.847 170.435C265.942 167.826 261.922 164.871 260.285 160.66C258.707 156.727 260.182 152.384 262.929 149.143C267.219 143.998 273.306 140.297 279.472 137.079C283.393 135.071 287.465 133.305 291.641 131.757Z" fill="#212121" fill-opacity="0.2"/>
<path d="M110.178 131.725C107.555 131.438 104.895 131.324 102.257 131.575C89.802 133.778 77.2069 135.676 65.1 139.173C61.563 140.197 58.0208 141.444 55.133 143.566C51.2791 146.229 48.8069 150.108 47.2227 154.132C44.4232 161.334 41.4939 168.518 39.4735 175.929C38.658 179.089 37.7232 182.622 39.6033 185.64C40.6837 187.584 43.2442 188.544 45.6178 188.408C69.4109 186.819 93.2715 185.999 117.127 185.663C123.235 185.44 129.551 186.172 135.441 184.392C142.052 182.394 146.867 177.596 150.762 172.711C157.146 164.566 162.838 156.021 168.136 147.317C169.777 144.376 171.309 141.003 170.354 137.693C169.606 135.271 166.64 134.192 164.022 134.038C146.124 132.49 128.117 132.503 110.178 131.725Z" fill="#212121" fill-opacity="0.2"/>
<path d="M306.402 132.267C297.089 131.616 288.275 135.317 280.474 139.391C275.498 142.054 270.668 145.187 267.302 149.425C264.56 152.871 263.152 157.246 264.041 161.425C265.329 165.186 269.24 167.785 273.4 168.873C278.708 170.248 284.4 170.061 289.787 169.155C302.543 166.988 313.559 158.867 318.727 148.483C320.332 145.364 320.571 141.444 318.01 138.663C315.086 135.544 311.175 132.64 306.402 132.267Z" fill="#212121" fill-opacity="0.2"/>
<path d="M245.587 132.485C236.373 131.11 227.133 134.284 219.643 138.827C214.85 141.699 210.606 145.214 206.68 148.952C203.091 152.193 200.795 156.422 199.528 160.774C198.65 164.271 198.593 168.331 201.21 171.3C204.301 174.723 209.64 175.829 214.392 175.738C227.149 174.673 239.261 168.609 246.792 159.509C249.529 156.24 251.742 152.63 253.398 148.851C254.744 145.378 255.107 141.435 253.44 137.998C252.069 135.167 249.036 133.036 245.587 132.485Z" fill="#212121" fill-opacity="0.2"/>
<path d="M224.193 133.705C216.07 137.575 207.952 141.636 200.971 147.017C197.46 149.812 194.084 152.953 192.225 156.846C190.786 159.759 190.62 163.251 192.282 166.119C193.539 168.473 195.772 170.262 198.073 171.832C195.679 168.017 195.097 163.383 196.681 159.24C199.117 152.616 204.669 147.34 210.429 142.756C214.683 139.355 219.488 136.578 224.193 133.705Z" fill="#212121" fill-opacity="0.2"/>
<path d="M44.8438 148.86C44.6153 148.751 44.1478 148.533 43.9141 148.423C41.66 148.847 39.9148 150.34 38.2891 151.701C33.5731 156.09 30.2958 161.489 27.5171 166.966C25.6836 170.785 23.6476 174.618 22.988 178.766C22.7855 180.541 22.5985 182.649 24.0995 184.06C25.05 184.597 26.0784 183.923 26.7795 183.395C32.9083 178.101 35.9623 170.826 39.8317 164.234C41.8677 160.405 44.0699 156.586 45.2074 152.461C45.4151 151.291 45.8151 149.848 44.8438 148.86Z" fill="#212121" fill-opacity="0.2"/>
<path d="M456.063 161.931C445.748 160.31 434.836 160.383 424.967 163.761C416.299 166.615 408.814 171.823 403.039 178.124C395.845 185.972 391.041 195.332 387.852 204.961C384.419 215.531 382.772 226.548 382.944 237.538C383.583 247.326 385.063 257.114 388.018 266.583C390.807 275.469 394.973 284.146 401.346 291.53C406.95 298.049 414.408 303.412 423.03 306.558C432.8 310.186 443.722 311.056 454.193 309.859C445.078 309.085 436.051 306.499 428.676 301.646C420.319 296.224 414.299 288.453 410.18 280.163C404.841 269.392 402.171 257.756 400.618 246.138C398.946 234.825 399.185 223.339 400.8 212.031C402.203 202.712 404.794 193.402 409.739 185.003C413.982 177.791 420.22 171.341 428.276 167.23C436.586 162.855 446.48 161.389 456.063 161.931Z" fill="#212121" fill-opacity="0.2"/>
<path d="M800.806 187.097C796.022 194.303 790.88 201.432 784.144 207.382C780.223 210.788 775.668 213.715 770.484 215.454C765.036 217.343 759.146 217.821 753.355 218.185C683.18 221.928 612.99 225.419 542.816 229.02C538.557 229.366 534.251 229.18 530.029 229.84C563.27 229.189 596.531 228.916 629.782 228.383C672.491 227.85 715.19 227.213 757.899 226.676C763.426 226.471 769.045 226.922 774.489 225.897C782.653 224.29 789.021 218.336 791.545 211.489C794.589 203.349 797.902 195.273 800.806 187.097Z" fill="#212121" fill-opacity="0.2"/>
<path d="M750.467 238.089C748 237.834 745.553 237.319 743.05 237.338C696.71 238.94 650.355 240.401 604 241.603C587.213 241.972 570.427 242.468 553.63 242.514C551.755 242.55 549.88 242.705 548.015 242.919C554.674 242.764 561.317 243.411 567.97 243.488C610.092 244.99 652.261 245.081 694.404 244.922C727.629 244.776 760.844 244.271 794.049 243.584C779.537 241.644 764.989 239.937 750.467 238.089Z" fill="#212121" fill-opacity="0.2"/>
<path d="M360.979 242.578C360.589 241.694 359.478 241.845 358.605 241.845C333.747 242.892 308.864 243.83 283.969 243.315C280.079 250.053 273.426 255.584 265.297 258.193C260.041 259.959 254.359 260.66 248.734 260.441C203.802 262.936 158.782 264.989 113.735 264.425C97.6914 263.897 81.6683 263.055 65.6816 261.762C53.2579 260.687 40.8341 259.399 28.6078 257.132C23.3464 256.108 18.0746 254.983 13.0833 253.144C10.5071 252.147 7.77517 251.018 6.20143 248.846C3.63046 251.746 2.47742 255.347 1.30361 258.816C0.218092 262.099 0.94004 265.841 3.5162 268.454C7.23501 272.278 12.7353 274.213 18.0279 275.788C29.07 278.852 40.616 280.186 52.0788 281.369C81.8449 284.119 111.793 284.897 141.694 285.781C203.537 287.556 265.479 285.954 327.125 281.369C337.061 280.582 346.992 279.776 356.896 278.747C357.665 278.556 358.943 278.66 359.073 277.745C359.047 266.014 359.763 254.259 360.979 242.578Z" fill="#212121" fill-opacity="0.2"/>
<path d="M404.343 301.286C387.582 288.612 378.991 269.123 378.046 250.016C376.561 255.293 376.623 260.783 376.228 266.178C376.031 273.357 375.771 280.554 376.244 287.729C375.896 289.209 373.787 289.609 372.322 289.896C365.196 290.847 357.956 290.761 350.768 291.253C352.793 294.221 355.842 296.488 358.6 298.91C362.864 302.502 367.315 305.93 371.881 309.23C377.111 312.968 384.284 312.708 390.62 313.414C404.254 314.265 417.992 315.162 431.642 314.061C421.674 311.507 412.211 307.273 404.343 301.286Z" fill="#212121" fill-opacity="0.2"/>
<path d="M901.577 259.877C888.946 260.737 876.371 262.153 863.75 263.177C805.434 268.34 747.08 273.266 688.681 277.727C649.618 280.673 610.539 283.486 571.393 285.471C561.789 285.808 552.201 286.445 542.593 286.509C558.102 286.705 573.616 286.331 589.125 286.231C628.416 285.944 667.703 285.667 706.994 285.526C709.809 285.471 712.624 285.603 715.424 285.425C777.485 276.949 839.51 268.299 901.577 259.877Z" fill="#212121" fill-opacity="0.2"/>
<path d="M108.001 293.988C95.8423 293.693 83.6991 293.205 71.5818 292.309C73.6645 295.646 77.2119 297.999 80.4581 300.407C95.5359 310.719 113.969 317.68 133.16 318.658C145.407 319.268 157.8 317.151 168.889 312.549C179.588 308.174 189.072 301.732 197.237 294.298C167.492 294.621 137.736 294.676 108.001 293.988Z" fill="#212121" fill-opacity="0.2"/>
</svg>

