<svg width="442" height="434" viewBox="0 0 442 434" fill="none" xmlns="http://www.w3.org/2000/svg">
<mask id="mask0_246_1546" style="mask-type:luminance" maskUnits="userSpaceOnUse" x="82" y="37" width="278" height="385">
<path d="M82.4529 37.8887H359.521V421.481H82.4529V37.8887Z" fill="white"/>
</mask>
<g mask="url(#mask0_246_1546)">
<path d="M343.953 406.281H98.024V272.614C98.024 226.746 127.38 197.113 172.805 197.113H180.699C192.733 203.373 206.431 206.95 220.979 206.95C235.52 206.95 249.222 203.373 261.252 197.113H269.152C314.59 197.113 343.953 226.746 343.953 272.614V406.281ZM150.23 122.455C150.23 84.2331 181.965 53.1363 220.979 53.1363C259.98 53.1363 291.708 84.2331 291.708 122.455C291.708 147.719 277.793 169.81 257.111 181.919C246.523 188.121 234.188 191.756 220.979 191.756C207.761 191.756 195.426 188.121 184.83 181.919C164.153 169.81 150.23 147.719 150.23 122.455ZM281.389 182.646C297.31 167.31 307.213 145.999 307.213 122.455C307.213 75.8513 268.527 37.9429 220.979 37.9429C173.419 37.9429 134.727 75.8513 134.727 122.455C134.727 145.999 144.635 167.31 160.558 182.646C113.412 187.781 82.5212 222.592 82.5212 272.614V421.474H359.458V272.614C359.458 222.586 328.556 187.781 281.389 182.646Z" fill="#353C41"/>
</g>
<path d="M220.991 254.478L206.646 236.896L192.292 219.316H249.678L235.345 236.896L220.991 254.478Z" fill="#353C41"/>
<path d="M220.991 372.764L204.024 351.757L187.068 330.777L220.991 252.096L254.909 330.777L237.957 351.757L220.991 372.764Z" fill="#353C41"/>
<mask id="mask1_246_1546" style="mask-type:luminance" maskUnits="userSpaceOnUse" x="97" y="12" width="248" height="170">
<path d="M97.6765 12.5361H344.869V181.687H97.6765V12.5361Z" fill="white"/>
</mask>
<g mask="url(#mask1_246_1546)">
<path d="M334.228 73.8864L321.469 67.647C302.826 34.9986 265.015 12.5405 221.394 12.5405C177.774 12.5405 139.958 34.9986 121.326 67.647L108.573 73.8864C102.807 73.8864 98.1306 80.3555 98.1306 84.1162V130.703C98.1306 134.47 102.807 144.337 108.573 144.337H122.507C128.275 144.337 132.95 141.28 132.95 137.512V82.0302C146.933 50.4426 181.263 28.0159 221.394 28.0159C261.532 28.0159 295.869 50.4426 309.852 82.0302V137.512C309.852 141.28 314.526 144.337 320.297 144.337H322.969C323.121 149.21 322.511 153.247 319.107 156.525C311.653 163.685 291.111 167.402 255.133 168.137V167.914C255.133 164.18 252.479 161.146 249.198 161.146H216.59C213.32 161.146 210.66 164.18 210.66 167.914V174.694C210.66 178.434 213.32 181.458 216.59 181.458H249.198C252.108 181.458 254.406 179.035 254.922 175.889C294.616 175.122 316.042 170.814 325.404 161.812C330.841 156.586 331.732 150.501 331.598 144.337H334.228C339.994 144.337 344.673 134.47 344.673 130.703V84.1162C344.673 80.3555 339.994 73.8864 334.228 73.8864Z" fill="#353C41"/>
</g>
</svg>
