<svg xmlns="http://www.w3.org/2000/svg" xmlns:xlink="http://www.w3.org/1999/xlink" width="500" zoomAndPan="magnify" viewBox="0 0 650 650" height="500" preserveAspectRatio="xMidYMid meet" version="1.0"><defs><clipPath id="456cb2ed6c"><path d="M 94 134.148438 L 716 134.148438 L 716 754.929688 L 94 754.929688 Z M 94 134.148438 "  fill="#212121" fill-opacity="0.2"/></clipPath><clipPath id="e8787a52e7"><path d="M 0.792969 55.179688 L 809.226562 55.179688 L 809.226562 419 L 0.792969 419 Z M 0.792969 55.179688 "  fill="#212121" fill-opacity="0.2"/></clipPath></defs><g clip-path="url(#456cb2ed6c)"><path d="M 690.589844 402.453125 L 405.011719 163.898438 L 119.421875 402.453125 L 119.421875 729.722656 L 320.28125 729.722656 L 320.28125 558.8125 C 320.28125 551.835938 325.933594 546.171875 332.910156 546.171875 L 477.101562 546.171875 C 484.078125 546.171875 489.730469 551.835938 489.730469 558.8125 L 489.730469 729.722656 L 690.589844 729.722656 Z M 413.65625 138.253906 L 711.304688 386.882812 L 711.324219 386.875 C 714.3125 389.367188 715.855469 392.957031 715.855469 396.566406 L 715.855469 742.359375 C 715.855469 749.335938 710.199219 755 703.226562 755 L 477.101562 755 C 470.121094 755 464.464844 749.335938 464.464844 742.359375 L 464.464844 571.449219 L 345.546875 571.449219 L 345.546875 742.359375 C 345.546875 749.335938 339.882812 755 332.910156 755 L 106.785156 755 C 99.8125 755 94.15625 749.335938 94.15625 742.359375 L 94.15625 396.566406 C 94.15625 392.410156 96.164062 388.714844 99.273438 386.410156 L 396.914062 137.792969 L 396.90625 137.765625 C 401.867188 133.628906 409.070312 133.9375 413.65625 138.253906 "  fill="#212121" fill-opacity="0.2"/></g><g clip-path="url(#e8787a52e7)"><path d="M 788.382812 414.9375 C 793.644531 419.484375 801.59375 418.910156 806.144531 413.652344 C 810.703125 408.390625 810.128906 400.4375 804.867188 395.878906 C 762.886719 359.695312 422.035156 55.660156 405.386719 55.179688 L 405.320312 55.171875 L 404.691406 55.171875 L 404.625 55.179688 C 384.261719 55.773438 48.484375 358.519531 5.144531 395.878906 C -0.117188 400.4375 -0.691406 408.390625 3.859375 413.652344 C 8.417969 418.910156 16.367188 419.484375 21.628906 414.9375 L 405.011719 84.433594 L 788.382812 414.9375 "  fill="#212121" fill-opacity="0.2"/></g><path d="M 128.203125 128.058594 L 217.851562 128.058594 L 217.851562 245.78125 L 213.457031 249.5625 L 136.992188 315.480469 L 116.261719 333.355469 L 116.175781 305.953125 L 115.617188 140.6875 L 115.574219 128.058594 Z M 192.585938 153.328125 L 140.832031 153.328125 L 141.25 278.546875 L 192.585938 234.300781 L 192.585938 153.328125 "  fill="#212121" fill-opacity="0.2"/></svg>
