<svg width="743" height="711" viewBox="0 0 743 711" fill="none" xmlns="http://www.w3.org/2000/svg">
<path d="M518.864 575.4C516.098 572.211 513.299 568.986 510.476 565.722L582.601 513.308C587.911 509.456 583.883 501.073 577.581 502.865L479.997 530.544C427.58 470.054 325.614 351.88 293.814 315.014C288.586 308.965 289.654 299.716 296.118 295.023L388.165 228.13C388.366 228.35 388.577 228.57 388.789 228.779C400.233 240.055 418.593 239.861 429.798 228.339C438.838 219.047 440.454 205.22 434.714 194.301L494.842 150.61C510.343 139.345 498.594 114.88 480.195 120.096L230.03 191.073C207.99 197.32 184.342 190.297 169.214 173.004C155.691 157.554 143.472 143.616 132.902 131.607C110.332 105.959 47.8814 82.3066 24.0679 106.778C0.254326 131.261 25.0855 193.587 51.0418 215.743C63.2639 226.186 77.4531 238.252 93.1938 251.606C110.694 266.464 118.183 290.11 112.435 312.406L47.3941 564.954C42.5999 583.574 67.1551 594.872 78.0121 579.051L128.62 505.275C139.911 512.338 154.942 510.859 164.627 500.896C175.828 489.385 175.635 470.909 164.19 459.636C163.337 458.799 162.445 458.027 161.524 457.317L217.257 376.085C221.789 369.473 230.98 368.214 237.104 373.365C274.594 404.914 395.073 506.282 454.776 556.469L429.343 655.236C427.698 661.613 436.108 665.477 439.83 660.055L490.374 586.381C493.674 589.165 496.939 591.907 500.163 594.612C512.837 605.268 529.703 587.921 518.864 575.4Z" fill="#212121" fill-opacity="0.2"/>
<path d="M468.42 237.898C506.097 267.755 612.111 338.284 742.792 308.9C742.792 308.9 609.782 368.939 447.792 267.283C439.211 261.904 436.831 250.387 442.486 241.956C448.319 233.274 460.236 231.412 468.42 237.898Z" fill="#212121" fill-opacity="0.2"/>
<path d="M206.98 492.7C246.946 519.365 358.321 580.963 486.196 540.944C486.196 540.944 358.49 611.704 188.796 523.687C179.809 519.026 176.506 507.746 181.465 498.872C186.567 489.739 198.302 486.911 206.98 492.7Z" fill="#212121" fill-opacity="0.2"/>
</svg>
